<?xml version="1.0" encoding="UTF-8"?>
<svg id="Layer_2" data-name="Layer 2" xmlns="http://www.w3.org/2000/svg" viewBox="0 0 676.09 730.73">
  <defs>
    <style>
      .cls-1 {
        fill: #231f20;
      }
    </style>
  </defs>
  <path class="cls-1" d="M332.28,86.49c-143.09,0-260.77,108.79-274.84,248.17h33.75c13.92-120.81,116.55-214.61,241.09-214.61s227.17,93.8,241.09,214.61h33.75c-14.07-139.38-131.75-248.17-274.84-248.17Zm241.09,304.35c-13.92,120.81-116.55,214.61-241.09,214.61s-227.17-93.8-241.09-214.61H57.44c14.07,139.38,131.75,248.17,274.84,248.17s260.77-108.79,274.84-248.17h-33.75Z"/>
  <path class="cls-1" d="M676.09,348.7h0c0,6.75-4.76,12.39-11.11,13.74-.95,.2-1.93,.31-2.94,.31H14.05c-1.01,0-1.99-.11-2.94-.31-6.35-1.35-11.11-6.99-11.11-13.73H0c0-7.76,6.29-14.05,14.05-14.05H662.04c7.76,0,14.05,6.29,14.05,14.04Z"/>
  <path class="cls-1" d="M177.77,390.22H486.79c-12.98,73.56-77.22,129.44-154.51,129.44s-141.53-55.88-154.51-129.44Z"/>
  <path class="cls-1" d="M489.19,362.13v.62H175.37v-.62c.04-9.37,.9-18.55,2.51-27.47,13.24-73.25,77.33-128.82,154.4-128.82,13.03,0,25.69,1.59,37.79,4.58-12.66,9.9-20.79,25.32-20.79,42.64,0,29.9,24.23,54.13,54.13,54.13,25.37,0,46.67-17.46,52.53-41.02,15.35,19.62,26.13,42.98,30.74,68.49,1.61,8.92,2.47,18.1,2.51,27.47Z"/>
  <path class="cls-1" d="M664.98,362.44c-.95,.2-1.93,.31-2.94,.31H14.05c-1.01,0-1.99-.11-2.94-.31,.95-.2,1.93-.31,2.94-.31H662.04c1.01,0,1.99,.11,2.94,.31Z"/>
</svg>