<svg width="35" height="47" viewBox="0 0 35 47" fill="none" xmlns="http://www.w3.org/2000/svg">
<path d="M17.0643 1C8.21695 1 1 8.21695 1 17.0643C1 28.0456 15.386 44.2058 15.9854 44.8772C16.5608 45.5245 17.5678 45.5245 18.1433 44.8772C18.7666 44.2058 33.1286 28.0456 33.1286 17.0643C33.1286 8.21695 25.9117 1 17.0643 1Z" stroke="white" stroke-width="2" stroke-linecap="round" stroke-linejoin="round"/>
<path d="M17.9872 22.6633C21.0866 22.17 23.1992 19.2574 22.7059 16.158C22.2125 13.0586 19.3 10.946 16.2006 11.4393C13.1012 11.9327 10.9886 14.8452 11.4819 17.9446C11.9752 21.044 14.8878 23.1567 17.9872 22.6633Z" stroke="white" stroke-width="2" stroke-linecap="round" stroke-linejoin="round"/>
</svg>
