<?xml version="1.0" encoding="UTF-8"?>
<svg id="Layer_1" data-name="Layer 1" xmlns="http://www.w3.org/2000/svg" viewBox="0 0 578.69 730.73">
  <defs>
    <style>
      .cls-1 {
        stroke-width: 18px;
      }

      .cls-1, .cls-2 {
        fill: none;
        stroke: #231f20;
        stroke-miterlimit: 10;
      }

      .cls-2 {
        stroke-width: 16px;
      }
    </style>
  </defs>
  <circle class="cls-1" cx="290.38" cy="599.1" r="44.06" transform="translate(-374.25 638.11) rotate(-67.5)"/>
  <ellipse class="cls-2" cx="290.38" cy="207.89" rx="36.76" ry="34.44"/>
  <g>
    <polyline class="cls-2" points="323.17 494.13 323.17 307.67 323.17 383.95 360.48 383.95 360.48 291.78 360.48 280.13 326.56 248.35 290.38 248.35"/>
    <polyline class="cls-2" points="257.59 494.13 257.59 307.67 257.59 383.95 220.27 383.95 220.27 291.78 220.27 280.13 254.19 248.35 290.38 248.35"/>
  </g>
  <line class="cls-2" x1="290.38" y1="478.56" x2="290.38" y2="387.92"/>
  <g>
    <line class="cls-1" x1="397.25" y1="207.89" x2="500.4" y2="207.89"/>
    <polygon class="cls-1" points="560.69 208.26 500.4 173.45 500.4 243.07 560.69 208.26"/>
  </g>
  <g>
    <line class="cls-1" x1="181.44" y1="208.63" x2="78.29" y2="208.63"/>
    <polygon class="cls-1" points="18 208.26 78.29 243.07 78.29 173.45 18 208.26"/>
  </g>
  <g>
    <line class="cls-1" x1="289.64" y1="142.55" x2="289.64" y2="62.13"/>
    <polygon class="cls-1" points="290.01 15.12 255.2 62.13 324.82 62.13 290.01 15.12"/>
  </g>
  <path class="cls-1" d="M266.02,480.92c8.41-8.41,38.24-6.18,46.98-1.23,10.17,5.76,7.74,24,22.28,35.56,12.77,10.14,38.99,1.86,46.14,7.33s20.88,28.07,20.94,34.94c.07,8.61-19.91,21.18-19.91,39.83,0,20.61,19.72,30.75,19.92,40.64s-12.52,34.41-19.92,39.32-31.13-5.32-45.96,2.76c-12.89,7.03-16.13,32.46-22.47,37.72s-34.35,5.44-42.89-.14c-5.07-3.32-11.27-28.97-25.53-38.15-14.45-9.31-37.79,7.66-46.98,2.11-4.78-2.89-24.53-30.76-24.74-40.08-.39-17.07,18.25-19.35,18.25-42.1,0-18.62-18.9-29.57-18.53-40.95,.29-8.96,13.32-30.57,18.9-35.23,7.15-5.98,32.62,4.28,49.02-5.25,13.82-8.03,17.69-30.25,24.51-37.06Z"/>
</svg>