<?xml version="1.0" encoding="UTF-8"?>
<svg id="Layer_1" data-name="Layer 1" xmlns="http://www.w3.org/2000/svg" viewBox="0 0 367.48 367.48">
  <defs>
    <style>
      .cls-1 {
        fill: #fff;
      }

      .cls-2 {
        fill: #23326a;
      }
    </style>
  </defs>
  <circle class="cls-1" cx="183.74" cy="183.74" r="183.74"/>
  <path class="cls-2" d="M367.48,162.91c-4.5,9.02-13.84,15.21-24.61,15.21-15.2,0-27.52-12.32-27.52-27.53,0-2.69,.38-5.29,1.11-7.74l-72.26-48.41c-4.71,4.8-11.2,7.84-18.4,8.08l-19.14,164.45c10.6,3.71,18.19,13.8,18.19,25.67,0,15.03-12.19,27.21-27.2,27.21s-27.21-12.19-27.21-27.21c0-8.54,3.94-16.17,10.11-21.14l-50.56-75.24c-3.57,1.76-7.59,2.75-11.84,2.75-7.64,0-14.53-3.19-19.41-8.31l-49.92,33.56c2.09,3.85,3.26,8.24,3.26,12.92,0,15.02-12.17,27.2-27.2,27.2-2.9,0-5.68-.46-8.29-1.3-6.22-13.07-10.95-26.99-13.97-41.53,4.91-7.02,13.05-11.59,22.26-11.59,7.24,0,13.83,2.82,18.69,7.45l50.3-33.81c-1.65-3.47-2.56-7.35-2.56-11.45,0-14.83,12.02-26.85,26.85-26.85s26.85,12.02,26.85,26.85c0,7.48-3.06,14.25-8,19.11l51.02,75.92c3-1.13,6.24-1.75,9.63-1.75,.17,0,.34,0,.51,.01l19.11-163.98c-11.33-3.28-19.62-13.73-19.62-26.12,0-15.03,12.17-27.2,27.2-27.2s27.2,12.17,27.2,27.2c0,4.35-1.02,8.47-2.84,12.11l70.98,47.56c4.96-7.2,13.26-11.93,22.67-11.93,6.75,0,12.91,2.43,17.7,6.46,3.29,10.74,5.63,21.9,6.91,33.38h0Z"/>
</svg>