<?xml version="1.0" encoding="UTF-8"?>
<svg id="Layer_1" data-name="Layer 1" xmlns="http://www.w3.org/2000/svg" viewBox="0 0 998.2 1000">
  <defs>
    <style>
      .cls-1 {
        fill: #242e64;
      }
    </style>
  </defs>
  <path class="cls-1" d="M785.11,467.36c-7.03,14.08-21.59,23.73-38.4,23.73-23.71,0-42.94-19.23-42.94-42.96,0-4.2,.6-8.26,1.73-12.08l-112.77-75.55c-7.35,7.48-17.48,12.23-28.72,12.6l-29.87,256.63c16.54,5.78,28.39,21.54,28.39,40.06,0,23.45-19.02,42.47-42.45,42.47s-42.47-19.02-42.47-42.47c0-13.33,6.16-25.24,15.78-32.99l-78.9-117.42c-5.57,2.75-11.84,4.29-18.48,4.29-11.92,0-22.68-4.97-30.29-12.97l-77.91,52.37c3.26,6.01,5.09,12.86,5.09,20.17,0,23.44-19,42.45-42.45,42.45-4.52,0-8.86-.71-12.94-2.02-9.7-20.39-17.09-42.11-21.8-64.81,7.66-10.95,20.36-18.09,34.74-18.09,11.31,0,21.58,4.41,29.17,11.63l78.49-52.76c-2.58-5.41-4-11.47-4-17.87,0-23.15,18.76-41.9,41.9-41.9s41.9,18.76,41.9,41.9c0,11.68-4.78,22.24-12.49,29.82l79.63,118.49c4.68-1.77,9.73-2.74,15.03-2.74,.26,0,.53,0,.79,.02l29.82-255.91c-17.69-5.12-30.61-21.43-30.61-40.77,0-23.45,19-42.45,42.45-42.45s42.45,19,42.45,42.45c0,6.79-1.59,13.22-4.44,18.9l110.78,74.22c7.74-11.24,20.7-18.61,35.38-18.61,10.53,0,20.15,3.79,27.62,10.07,5.13,16.76,8.78,34.18,10.79,52.09Z"/>
</svg>