<?xml version="1.0" encoding="UTF-8"?>
<svg id="Layer_1" data-name="Layer 1" xmlns="http://www.w3.org/2000/svg" viewBox="0 0 998.2 1000">
  <defs>
    <style>
      .cls-1 {
        fill: #242e64;
      }
    </style>
  </defs>
  <path class="cls-1" d="M992.53,440.29l-157.97-78.54,56.25-171.24-84.37-82.72-164.6,57.08L559.13,6.87h-118.27l-79.4,157.99-167.08-57.08-85.2,85.2,59.56,168.76L8.28,441.94v117.45l158.8,81.05-57.08,165.43,86.03,87.68,168.73-59.56,76.92,159.64h120.75l77.75-158.82,168.73,57.91,81.07-86.85-56.25-163.77,158.8-83.53v-118.27Zm-494.25,348.2c-115.07,0-214.42-67.37-260.78-164.81-9.69-20.39-17.07-42.11-21.79-64.82-3.97-19.05-6.06-38.78-6.06-58.99,0-159.42,129.24-288.66,288.62-288.66,129.99,0,239.9,85.93,276.05,204.07,5.13,16.76,8.78,34.18,10.79,52.09,1.2,10.66,1.81,21.51,1.81,32.49,0,159.4-129.22,288.62-288.66,288.62Z"/>
</svg>