<svg width="627" height="630" viewBox="0 0 627 630" fill="none" xmlns="http://www.w3.org/2000/svg">
<path d="M626.75 284.35C626.75 280.07 623.61 276.43 619.37 275.8C575.96 269.34 541.81 263.37 526.16 226.89C510.26 189.83 528.53 153.92 556.19 123.92C559.36 120.48 559.23 115.16 555.9 111.89L514.67 71.4699C511.22 68.0899 505.69 68.1999 502.36 71.6899C473.92 101.45 439.5 115.4 403.46 101.53C365.96 87.0999 354.48 53.0899 351.29 8.93994C350.96 4.42994 347.2 0.939941 342.67 0.939941H282.68C278.5 0.939941 274.92 3.92993 274.17 8.03993C266.02 52.8599 262.41 86.2499 224.93 101.54C187.58 116.77 160.89 94.6999 124.5 69.3099C121.07 66.9199 116.41 67.3299 113.45 70.2899L69.8801 113.86C66.73 117.01 66.4801 122.03 69.3201 125.46C96.41 158.26 117.42 189.17 102.22 226.89C86.92 264.86 50 270.41 7.41005 276.83C3.18005 277.47 0.0500488 281.1 0.0500488 285.38V345.46C0.0500488 349.67 3.07005 353.26 7.22005 353.98C44.98 360.49 86.4501 367 101.16 404.34C115.5 440.73 95.4501 473.03 69.8901 503.68C67.0401 507.1 67.22 512.12 70.34 515.3L114.49 560.29C117.45 563.3 122.16 563.75 125.62 561.32C162.01 535.78 189.25 511.8 227.03 527.57C264.2 543.09 267.11 581.9 274.64 622.16C275.4 626.25 278.98 629.21 283.14 629.21H345.38C349.69 629.21 353.34 626.03 353.94 621.76C359.8 580.06 365.42 543.56 402.4 528.08C439.94 512.37 466.63 531.2 503.6 560.07C507.13 562.83 512.18 562.43 515.24 559.15L556.07 515.41C559.09 512.17 559.18 507.17 556.27 503.83C527.46 470.92 511.96 441.37 525.64 405.36C540 367.54 574.05 359.52 619.29 353.19C623.57 352.59 626.75 348.94 626.75 344.63V284.32V284.35ZM312.05 498.6C238.78 498.6 175.52 455.71 146.01 393.66C139.84 380.68 135.14 366.85 132.14 352.39C129.61 340.26 128.28 327.7 128.28 314.83C128.28 213.33 210.57 131.04 312.05 131.04C394.81 131.04 464.8 185.75 487.82 260.98C491.09 271.65 493.41 282.74 494.69 294.15C495.45 300.94 495.85 307.85 495.85 314.84C495.85 416.33 413.57 498.61 312.06 498.61L312.05 498.6Z" fill="#23326A"/>
</svg>
