<svg width="65" height="65" viewBox="0 0 65 65" fill="none" xmlns="http://www.w3.org/2000/svg">
<path d="M65 28.5769L54.6757 23.3066L58.3125 12.4145L52.6805 6.55922L41.535 10.3065L36.7229 0H28.7453L23.4656 10.3059L12.5539 6.79192L6.80475 12.2968L11.0029 23.1389L0 28.6939V36.6571L10.5594 41.694L6.77154 52.7792L12.4367 58.4414L23.4656 54.6941L28.6281 65H36.7235L41.5344 54.5765L52.9149 58.6754L58.3118 53.0535L54.675 41.8104L64.9994 36.5401V28.5756L65 28.5769ZM13.9676 36.1618C10.9879 10.2571 43.8447 6.04831 50.6417 26.9109C50.6501 26.9363 48.625 25.2781 46.5341 27.4179L39.5555 22.5923C40.555 19.0003 37.195 18.5499 36.5392 18.6019C34.251 18.7832 32.668 22.6839 36.0847 24.2121L33.8492 40.8425C33.6942 40.8022 33.1596 40.8061 32.9044 41.0596L27.962 33.4402C29.9246 31.3004 27.962 28.6698 26.3992 28.5782C25.1626 28.5067 22.5097 29.2314 23.2006 32.6784L18.2211 35.7263C15.3136 34.0935 13.9976 36.414 13.9683 36.1612L13.9676 36.1618ZM15.4582 40.6618C15.4582 40.6618 20.4377 41.3879 18.9472 36.4166L23.8909 33.4045C24.7992 34.4926 26.5444 34.529 27.1623 34.0213L32.1047 41.6043C29.9246 44.2167 32.3346 46.6113 34.1774 46.4651C36.8583 46.2538 38.539 42.7282 35.0135 40.8783C34.8846 40.8113 37.0484 24.2966 37.0484 24.2966C37.7432 24.3148 38.6158 23.9482 38.9381 23.5718L46.0991 28.324C45.9356 29.7436 46.2488 30.4236 46.7164 31.0086C47.3669 31.8204 48.7109 32.2033 49.7339 31.8432C50.9692 31.4083 51.5637 30.6121 51.5637 30.6121C54.4217 47.8437 27.9249 62.6099 15.4588 40.6605L15.4582 40.6618Z" fill="#242E64"/>
</svg>
