<svg width="60" height="60" viewBox="0 0 60 60" fill="none" xmlns="http://www.w3.org/2000/svg">
<path d="M29.9998 53.1252C42.7713 53.1252 53.1248 42.7718 53.1248 30.0002C53.1248 17.2287 42.7713 6.87524 29.9998 6.87524C17.2282 6.87524 6.87476 17.2287 6.87476 30.0002C6.87476 42.7718 17.2282 53.1252 29.9998 53.1252Z" stroke="#072A6D" stroke-width="1.5" stroke-linecap="round" stroke-linejoin="round"/>
<path d="M34.575 7.77441C34.5 8.87441 34 9.89941 33.25 10.6994C32.475 11.5244 31.325 11.8244 30.575 12.6494C30.05 13.2494 29.925 14.0744 30.075 14.8494C30.275 15.7494 30.9 16.4244 31.1 17.2994C31.3 18.1994 31.1 19.0994 31.15 20.0244C31.2 21.0494 31.3 22.0994 31.25 23.1244C31.175 25.0744 29.925 26.8244 28.15 27.5994C27.4 27.9244 26.525 28.1244 26 28.7744C25.5 29.3744 25.45 30.2244 25 30.8494C24.5 31.5994 23.475 31.9744 22.6 31.6994C21.75 31.4494 21.175 30.6994 20.45 30.2494C19.625 29.7494 18.625 29.5494 17.65 29.5244C16.625 29.4994 15.575 29.6744 14.55 29.8244C12.55 30.1494 10.225 30.4994 8.5 29.1994" stroke="#072A6D" stroke-width="1.5" stroke-linecap="round" stroke-linejoin="round"/>
<path d="M27.45 51.0495C27.4 50.0245 27.3001 48.9745 27.3501 47.9495C27.4251 45.9995 28.675 44.2495 30.45 43.4745C31.2 43.1495 32.075 42.9495 32.6 42.2995C33.1 41.6995 33.1501 40.8495 33.6001 40.2245C34.1001 39.4745 35.125 39.0995 36 39.3745C36.85 39.6245 37.425 40.3745 38.15 40.8245C38.975 41.3245 39.9751 41.5245 40.9501 41.5495C41.9751 41.5745 43.025 41.3995 44.05 41.2495C46.05 40.9245 48.0199 40.2495 49.7449 41.5495" stroke="#072A6D" stroke-width="1.5" stroke-linecap="round" stroke-linejoin="round"/>
</svg>
